# xmcd
#
# Track frame offsets:
#	150
#	21957
#	39249
#	51890
#	68977
#	81960
#	99176
#	113188
#	136090
#	152825
#	168064
#	184385
#	204607
#	217308
#	227579
#	240614
#	256473
#	270107
#	284287
#	300943
#	318200
#	334470
#	350042
#
# Disc length: 4732 seconds
#
# Revision: 0
# Processed by: cddbd v1.5.2PL0 Copyright (c) Steve Scherf et al.
# Submitted via: EZCDAudioConverter 1.0.8.1
#
DISCID=47127a17
DTITLE=Kauko Röyhkä - Olen Messias - Valitut Palat 1980-2012 cd5
DYEAR=2012
DGENRE=
TTITLE0=Helvetti
TTITLE1=Kaikki menee hyvin, kun olet nuori
TTITLE2=Jäi jäljet
TTITLE3=Anna
TTITLE4=Odotetaan kultaista laivaa
TTITLE5=Vanhan ajan filmissä
TTITLE6=Sinä
TTITLE7=Kuuletko ääneni
TTITLE8=Ensin isät, sitten pojat
TTITLE9=Hyvä
TTITLE10=Saari
TTITLE11=Se on jotain ihmeellistä
TTITLE12=Pelkuri (demo)
TTITLE13=Kaikki Rakastaa mua (demo)
TTITLE14=Nousut ja tuhot (live)
TTITLE15=Ruma kaupunki (demo)
TTITLE16=Kaikki mikä on (demo)
TTITLE17=Ilona (demo)
TTITLE18=Mä en luovuta vielä (demo)
TTITLE19=Syntynyt uudestaan (demo)
TTITLE20=Suuruudenhullu (demo)
TTITLE21=Yötä kohti (demo)
TTITLE22=Toivomuslähde (demo)
EXTD=
EXTT0=
EXTT1=
EXTT2=
EXTT3=
EXTT4=
EXTT5=
EXTT6=
EXTT7=
EXTT8=
EXTT9=
EXTT10=
EXTT11=
EXTT12=
EXTT13=
EXTT14=
EXTT15=
EXTT16=
EXTT17=
EXTT18=
EXTT19=
EXTT20=
EXTT21=
EXTT22=
PLAYORDER=
